<?xml version="1.0" standalone="no"?>
<!DOCTYPE svg PUBLIC "-//W3C//DTD SVG 20010904//EN"
 "http://www.w3.org/TR/2001/REC-SVG-20010904/DTD/svg10.dtd">
<svg version="1.0" xmlns="http://www.w3.org/2000/svg"
 width="110.000000pt" height="92.000000pt" viewBox="0 0 110.000000 92.000000"
 preserveAspectRatio="xMidYMid meet">

<g transform="translate(0.000000,92.000000) scale(0.100000,-0.100000)"
fill="#000000" stroke="none">
<path d="M310 445 l0 -345 60 0 60 0 0 345 0 345 -60 0 -60 0 0 -345z"/>
<path d="M470 705 l0 -85 225 0 226 0 -3 83 -3 82 -222 3 -223 2 0 -85z"/>
<path d="M470 310 l0 -210 65 0 65 0 0 135 0 135 160 0 160 0 0 75 0 75 -225
0 -225 0 0 -210z"/>
</g>
</svg>
