<svg width="20" height="22" viewBox="0 0 20 22" fill="none" xmlns="http://www.w3.org/2000/svg">
<path fill-rule="evenodd" clip-rule="evenodd" d="M19.6956 19.3344L14.7651 14.2068C16.0327 12.6999 16.7273 10.8039 16.7273 8.83007C16.7273 4.21844 12.9753 0.466438 8.36364 0.466438C3.752 0.466438 0 4.21844 0 8.83007C0 13.4417 3.752 17.1937 8.36364 17.1937C10.0949 17.1937 11.7447 16.6715 13.1553 15.6803L18.1229 20.8468C18.3305 21.0624 18.6098 21.1813 18.9091 21.1813C19.1924 21.1813 19.4611 21.073 19.6651 20.8766C20.0989 20.4599 20.1124 19.7683 19.6956 19.3344ZM8.36364 2.64826C11.7724 2.64826 14.5455 5.42135 14.5455 8.83007C14.5455 12.2388 11.7724 15.0119 8.36364 15.0119C4.95491 15.0119 2.18182 12.2388 2.18182 8.83007C2.18182 5.42135 4.95491 2.64826 8.36364 2.64826Z" fill="#8A8A8A"/>
</svg>
